HIERARCHY
ROOT hip
{
	OFFSET 0.000000 0.000000 0.000000 
	CHANNELS 6 Xposition Yposition Zposition Xrotation Zrotation Yrotation
	JOINT abdomen
	{
		OFFSET 0.000000 3.402643 0.000000 
		CHANNELS 3 Xrotation Zrotation Yrotation
		JOINT chest
		{
			OFFSET 0.000000 8.438565 -0.680529 
			CHANNELS 3 Xrotation Zrotation Yrotation
			JOINT neck
			{
				OFFSET 0.000000 10.207942 -0.272212 
				CHANNELS 3 Xrotation Zrotation Yrotation
				JOINT head
				{
					OFFSET 0.000000 3.130431 0.000000 
					CHANNELS 3 Xrotation Zrotation Yrotation
					JOINT figureHair
					{
						OFFSET 0.000000 3.130435 0.000000 
						CHANNELS 3 Zrotation Yrotation Xrotation
						End Site
						{
							OFFSET 0.000000 -6.419331 0.000000 
						}
					}
				}
			}
			JOINT lCollar
			{
				OFFSET 3.470700 6.669187 -0.816635 
				CHANNELS 3 Yrotation Zrotation Xrotation
				JOINT lShldr
				{
					OFFSET 3.198488 0.000000 0.000000 
					CHANNELS 3 Zrotation Yrotation Xrotation
					JOINT lForeArm
					{
						OFFSET 10.139888 0.000000 0.000000 
						CHANNELS 3 Yrotation Zrotation Xrotation
						JOINT lHand
						{
							OFFSET 8.370511 0.000000 0.000000 
							CHANNELS 3 Zrotation Yrotation Xrotation
							End Site
							{
								OFFSET 4.083176 0.000000 0.000000 
							}
						}
					}
				}
			}
			JOINT rCollar
			{
				OFFSET -3.470700 6.669187 -0.816635 
				CHANNELS 3 Yrotation Zrotation Xrotation
				JOINT rShldr
				{
					OFFSET -3.198488 0.000000 0.000000 
					CHANNELS 3 Zrotation Yrotation Xrotation
					JOINT rForeArm
					{
						OFFSET -10.139888 0.000000 0.000000 
						CHANNELS 3 Yrotation Zrotation Xrotation
						JOINT rHand
						{
							OFFSET -8.370511 0.000000 0.000000 
							CHANNELS 3 Zrotation Yrotation Xrotation
							End Site
							{
								OFFSET -4.083176 0.000000 0.000000 
							}
						}
					}
				}
			}
		}
	}
	JOINT lThigh
	{
		OFFSET 5.308129 -1.633274 1.361059 
		CHANNELS 3 Xrotation Zrotation Yrotation
		JOINT lShin
		{
			OFFSET -2.041588 -20.007561 0.000000 
			CHANNELS 3 Xrotation Zrotation Yrotation
			JOINT lFoot
			{
				OFFSET 0.000000 -19.190928 -1.224953 
				CHANNELS 3 Xrotation Yrotation Zrotation
				End Site
				{
					OFFSET 0.000000 -2.449906 4.627600 
				}
			}
		}
	}
	JOINT rThigh
	{
		OFFSET -5.308129 -1.633274 1.361059 
		CHANNELS 3 Xrotation Zrotation Yrotation
		JOINT rShin
		{
			OFFSET 2.041588 -20.007561 0.000000 
			CHANNELS 3 Xrotation Zrotation Yrotation
			JOINT rFoot
			{
				OFFSET 0.000000 -19.190928 -1.224953 
				CHANNELS 3 Xrotation Yrotation Zrotation
				End Site
				{
					OFFSET 0.000000 -2.449906 4.627600 
				}
			}
		}
	}
}
MOTION
Frames: 16
Frame Time: 0.041667
0.081832 48.557705 0.461654 0.714818 0.000000 0.000000 -0.645623 0.825314 1.771109 -0.051967 0.444488 -0.461756 -1.686839 0.000000 0.000000 6.512135 -0.497430 -1.792462 0.000000 0.000000 0.000000 1.180948 -6.398002 -0.332021 -53.683739 -1.520883 10.928646 -57.711483 -39.871861 1.599057 20.188726 4.926521 11.783427 2.390736 6.002073 -0.421006 48.558151 6.563970 5.434555 65.828529 41.229813 -1.139147 -16.460831 -3.830017 8.395756 -16.690033 4.184855 0.293518 30.543495 -3.269939 -2.609526 -6.067014 3.482442 -0.469845 -8.670244 -4.618232 0.114058 16.682770 3.013424 0.679753 -9.168213 -1.662211 1.282961 
0.190176 48.356392 0.763838 1.725730 0.000000 0.000000 -0.894616 0.573647 3.792440 -0.377176 0.116774 -0.465930 -3.904780 0.000000 0.000000 6.164470 -1.138690 -3.635810 0.000000 0.000000 0.000000 1.240440 -6.314840 -0.316941 -51.223400 -1.572080 11.597000 -62.032001 -40.934200 3.287010 17.266800 5.050690 11.172000 7.994180 6.428560 -0.507713 47.344898 6.857760 -6.770767 80.656898 40.745155 -3.970660 -15.478100 -1.161130 11.114200 -24.807491 5.007977 0.156304 41.327484 -3.531003 -3.589740 -1.519594 5.192972 -0.449196 -10.277675 -4.997285 0.142326 18.461916 3.082118 0.893436 -10.340251 -1.705936 1.574385 
0.328752 48.075985 1.314555 3.154978 0.000000 0.000000 -1.121751 0.226531 6.208800 -1.039369 -0.347316 -0.473244 -6.683712 0.000000 0.000000 5.739671 -1.922223 -4.585007 0.000000 0.000000 0.000000 1.313129 -6.213224 -0.298515 -48.222797 -1.837821 12.034273 -67.301254 -42.229820 5.345630 17.895784 5.194206 7.401741 15.245771 7.064783 -0.632459 44.423500 7.248487 -6.804841 97.895523 38.054752 -6.942094 -13.613319 2.254901 14.230943 -29.301744 6.007122 -0.121800 41.458332 -3.671168 -3.553231 2.906805 4.165663 -1.229021 -12.522464 -5.534107 0.211493 20.963696 3.189434 1.164633 -12.022090 -1.760591 1.943487 
0.487034 47.772022 2.082284 4.690451 0.000000 0.000000 -1.379461 -0.078106 9.110483 -1.171672 -0.729272 -0.476307 -9.734364 0.000000 0.000000 5.240324 -2.843258 -4.766343 0.000000 0.000000 0.000000 1.398573 -6.093776 -0.276855 -44.691414 -1.998726 12.831125 -73.502594 -43.754612 7.768399 15.299133 5.375885 5.223452 22.468050 7.519246 -0.730625 41.502098 7.639213 -6.838914 114.145851 33.200325 -10.331470 -12.681817 6.435633 18.197903 -30.598944 6.868109 -0.401413 34.237335 -3.628666 -2.810022 7.319006 1.771899 -2.486529 -14.735599 -6.142111 0.296428 23.648540 3.306139 1.446596 -14.046125 -1.811776 2.374518 
0.648704 47.524181 2.985215 5.886620 0.000000 0.000000 -1.744050 -0.156405 12.583600 0.361798 -0.738924 -0.465420 -12.643200 0.000000 0.000000 4.675980 -3.884180 -4.569691 0.000000 0.000000 0.000000 1.495140 -5.958780 -0.252376 -40.684799 -1.615930 14.786000 -80.538498 -45.484600 10.517200 0.261187 5.618490 11.162700 27.394199 7.274780 -0.716591 38.580700 8.029940 -6.872988 125.099998 26.672005 -14.532100 -15.090200 11.322400 23.568199 -29.107353 7.449744 -0.446804 24.134544 -3.423887 -1.824126 11.669536 -0.490730 -3.621667 -15.998080 -6.657143 0.362790 25.753868 3.397550 1.660541 -16.090225 -1.831668 2.739327 
0.827839 47.307362 4.083526 6.868610 0.000000 0.000000 -2.246243 0.095663 16.514677 4.110507 -0.217361 -0.435785 -15.050509 0.000000 0.000000 4.077655 -4.987780 -4.319898 0.000000 0.000000 0.000000 1.597523 -5.815656 -0.226423 -36.424927 -0.482427 18.214758 -88.019211 -47.323948 13.439750 -29.260727 5.903654 27.202499 28.643820 6.057320 -0.543802 31.943897 8.174635 -6.907061 128.045044 18.655916 -19.604797 -21.675947 16.359114 29.928541 -25.639343 7.517589 -0.162772 18.398947 -3.208819 -1.267837 -0.005086 0.048583 -4.257814 -16.430515 -7.165835 0.378609 27.416351 3.481196 1.835469 -18.301331 -1.821621 3.095227 
1.086381 46.874287 5.494703 9.000000 0.000000 0.000000 -2.734440 0.462803 19.991899 8.278250 0.469308 -0.402222 -16.811899 0.000000 0.000000 3.562220 -5.938490 -4.081616 0.000000 0.000000 0.000000 1.685720 -5.692360 -0.204066 -32.799400 0.681347 21.502924 -94.386002 -48.889400 15.927100 -46.617401 6.048490 37.155701 28.382200 4.565220 -0.321968 22.760401 8.150400 -6.941134 126.647720 8.122192 -24.280405 -27.000000 19.000000 33.000000 -28.125868 7.370551 -0.187479 21.876175 -3.358916 -1.577161 -3.119637 0.183274 -3.881734 -18.588320 -8.103069 0.462724 30.793514 3.656272 2.055837 -21.604099 -1.729696 3.761800 
1.271667 46.548244 5.434190 10.620623 0.000000 0.000000 -3.050927 0.705278 22.142138 10.946636 0.918027 -0.380630 -17.875765 0.000000 0.000000 3.237887 -6.536718 -3.854456 0.000000 0.000000 0.000000 1.741214 -5.614778 -0.189999 -32.718899 0.713597 21.581688 -94.418442 -48.889400 15.927100 -46.617401 6.048491 37.155701 28.382200 3.562252 -0.171961 18.676132 8.116234 -6.975208 125.264175 -5.711194 -27.286505 -30.142857 19.571428 32.571430 -31.777746 7.245490 -0.305204 25.326139 -3.518600 -1.898215 -4.530334 0.311846 -3.503316 -21.770313 -8.799149 0.656639 33.375687 3.805994 2.232070 -22.590162 -1.639944 4.252482 
1.356831 46.400066 5.373677 11.355475 0.000000 0.000000 -3.195867 0.804909 23.045311 12.054227 1.102992 -0.371609 -18.346342 0.000000 0.000000 3.092363 -6.805137 -3.638038 0.000000 0.000000 0.000000 1.766108 -5.579968 -0.183687 -32.638397 0.745846 21.660452 -94.450882 -48.889400 15.927100 -46.617401 6.048491 37.155701 28.382200 3.101418 -0.103036 19.851839 8.100539 -7.009282 124.628174 -21.419006 -28.667624 -33.285713 20.142857 32.142860 -33.091434 7.157263 -0.339538 26.078693 -3.563763 -1.980964 -4.712386 0.366280 -3.354097 -23.285826 -9.113634 0.757727 34.531437 3.856796 2.306895 -22.964487 -1.606553 4.498003 
1.364889 46.388241 5.313164 11.411897 0.000000 0.000000 -3.208890 0.798908 23.019613 12.003823 1.092712 -0.371936 -18.366831 0.000000 0.000000 3.083228 -6.821987 -3.431983 0.000000 0.000000 0.000000 1.767664 -5.577784 -0.183292 -32.557896 0.778096 21.739216 -94.483322 -48.889400 15.927100 -46.617401 6.048491 37.155701 28.382200 3.058032 -0.096545 24.576958 8.099065 -7.043355 124.567909 -37.024212 -28.797533 -36.428570 20.714285 31.714289 -33.253891 7.147800 -0.345819 26.098261 -3.570289 -1.964315 -4.624613 0.361336 -3.344812 -23.500298 -9.137127 0.792086 34.629478 3.866261 2.297816 -22.905703 -1.607319 4.518184 
1.318858 46.471260 5.252650 10.997223 0.000000 0.000000 -3.129628 0.724486 22.383236 11.198225 0.955695 -0.378384 -18.080431 0.000000 0.000000 3.168065 -6.665507 -3.235923 0.000000 0.000000 0.000000 1.753143 -5.598077 -0.186973 -32.477394 0.810345 21.817980 -94.515762 -48.889400 15.927100 -46.617401 6.048491 37.155701 28.382200 3.307405 -0.133841 31.140930 8.107561 -7.077429 124.911552 -50.549736 -28.049997 -39.571426 21.285713 31.285717 -32.544582 7.185430 -0.332192 25.451677 -3.541598 -1.902279 -4.284202 0.330149 -3.434950 -22.810493 -8.960572 0.761440 34.002422 3.836086 2.269197 -22.560072 -1.650446 4.377703 
1.241753 46.607616 5.192137 10.318791 0.000000 0.000000 -2.997711 0.618854 21.454369 10.040230 0.760450 -0.387731 -17.630342 0.000000 0.000000 3.304455 -6.413938 -3.049493 0.000000 0.000000 0.000000 1.729804 -5.630702 -0.192889 -32.396893 0.842595 21.896744 -94.548203 -48.889400 15.927100 -46.617401 6.048491 37.155701 28.382200 3.724853 -0.196276 37.833195 8.121781 -7.111503 125.487320 -60.018551 -26.798784 -42.714283 21.857141 30.857145 -31.335180 7.250040 -0.299741 24.482664 -3.488986 -1.813032 -3.847517 0.276484 -3.564978 -21.574051 -8.665372 0.687376 32.935703 3.782520 2.191986 -22.057659 -1.691104 4.172419 
1.156589 46.755795 5.131625 9.583938 0.000000 0.000000 -2.852772 0.519222 20.551191 8.932638 0.575485 -0.396752 -17.159763 0.000000 0.000000 3.449979 -6.145518 -2.872335 0.000000 0.000000 0.000000 1.704910 -5.665513 -0.199200 -32.316391 0.874844 21.975508 -94.580643 -48.889400 15.927100 -46.617401 6.048491 37.155701 28.382200 4.185687 -0.265201 42.943207 8.137477 -7.145576 126.123421 -63.453594 -25.417662 -45.857140 22.428570 30.428574 -30.049305 7.321487 -0.259169 23.347021 -3.426271 -1.710790 -3.244197 0.224870 -3.733857 -20.227739 -8.347614 0.596494 31.761715 3.716387 2.114570 -21.515850 -1.730627 3.938724 
1.086381 46.874287 5.071112 9.000000 0.000000 0.000000 -2.734440 0.462803 19.991899 8.278250 0.469308 -0.402222 -16.811899 0.000000 0.000000 3.562220 -5.938490 -2.704098 0.000000 0.000000 0.000000 1.685720 -5.692360 -0.204066 -32.235889 0.907094 22.054272 -94.613083 -48.889400 15.927100 -46.617401 6.048491 37.155701 28.382200 4.565220 -0.321968 44.760399 8.150400 -7.179650 126.648003 -58.877808 -24.280399 -49.000000 23.000000 30.000000 -28.807709 7.363059 -0.228119 21.856653 -3.357313 -1.575534 -2.434556 0.182814 -3.882843 -19.330236 -8.092983 0.509520 30.832451 3.656839 2.068592 -20.907907 -1.735099 3.752382 
1.048607 46.931641 5.022382 8.723958 0.000000 0.000000 -2.672411 0.476413 20.007961 8.368580 0.491356 -0.401802 -16.693617 0.000000 0.000000 3.609264 -5.851717 -2.544438 0.000000 0.000000 0.000000 1.677696 -5.703612 -0.206103 -32.155388 0.939343 22.133036 -94.645523 -48.915806 15.968586 -46.617401 6.048492 37.155701 28.382200 4.768252 -0.352340 42.199619 8.157308 -7.179645 126.929779 -45.476048 -23.672340 -37.799999 22.200001 33.799999 -27.845142 7.399756 -0.185069 20.794821 -3.317778 -1.505336 -2.044356 0.162499 -3.981475 -18.814346 -7.964808 0.428402 30.324059 3.619185 2.050594 -20.626665 -1.697674 3.655850 
1.038586 46.936680 4.967321 8.711368 0.000000 0.000000 -2.656631 0.545291 20.483961 9.050005 0.614775 -0.396688 -16.766464 0.000000 0.000000 3.601217 -5.866557 -2.393015 0.000000 0.000000 0.000000 1.679098 -5.701685 -0.205750 -32.074886 0.971593 22.211800 -94.677963 -48.982014 16.072845 -46.617401 6.048492 37.155701 28.382200 4.817532 -0.359717 36.677345 8.158978 -7.179640 126.999435 -27.080801 -23.525110 -26.599998 21.400002 37.599998 -27.700100 7.410585 -0.178274 20.253744 -3.301241 -1.455575 -1.643286 0.152998 -4.011485 -18.559710 -7.966834 0.331746 30.246981 3.597864 2.058935 -20.778883 -1.629447 3.646686 
